<?xml version="1.0" encoding="UTF-8" standalone="no"?>
<!-- Created with Inkscape (http://www.inkscape.org/) -->

<svg
   xmlns:dc="http://purl.org/dc/elements/1.1/"
   xmlns:cc="http://creativecommons.org/ns#"
   xmlns:rdf="http://www.w3.org/1999/02/22-rdf-syntax-ns#"
   xmlns:svg="http://www.w3.org/2000/svg"
   xmlns="http://www.w3.org/2000/svg"
   xmlns:sodipodi="http://sodipodi.sourceforge.net/DTD/sodipodi-0.dtd"
   xmlns:inkscape="http://www.inkscape.org/namespaces/inkscape"
   width="360"
   height="360"
   id="svg2"
   version="1.1"
   inkscape:version="0.48.4 r9939"
   sodipodi:docname="logo.svg"
   inkscape:export-filename="/home/blaine/Documents/open-health-inspection-app/img/logo-big.png"
   inkscape:export-xdpi="125"
   inkscape:export-ydpi="125">
  <defs
     id="defs4">
    <inkscape:perspective
       sodipodi:type="inkscape:persp3d"
       inkscape:vp_x="0 : 180 : 1"
       inkscape:vp_y="0 : 1000 : 0"
       inkscape:vp_z="360 : 180 : 1"
       inkscape:persp3d-origin="180 : 120 : 1"
       id="perspective3074" />
  </defs>
  <sodipodi:namedview
     id="base"
     pagecolor="#2c3e50"
     bordercolor="#666666"
     borderopacity="1.0"
     inkscape:pageopacity="0"
     inkscape:pageshadow="2"
     inkscape:zoom="1.4142136"
     inkscape:cx="419.13952"
     inkscape:cy="152.26149"
     inkscape:document-units="px"
     inkscape:current-layer="layer3"
     showgrid="false"
     showguides="true"
     inkscape:guide-bbox="true"
     inkscape:snap-bbox="true"
     inkscape:snap-page="false"
     inkscape:window-width="1920"
     inkscape:window-height="1030"
     inkscape:window-x="0"
     inkscape:window-y="25"
     inkscape:window-maximized="1"
     inkscape:snap-object-midpoints="true"
     inkscape:snap-bbox-midpoints="false"
     inkscape:snap-bbox-edge-midpoints="true"
     inkscape:object-nodes="true"
     inkscape:bbox-paths="true"
     inkscape:snap-to-guides="true"
     inkscape:snap-grids="false"
     inkscape:snap-smooth-nodes="true"
     inkscape:snap-midpoints="true"
     borderlayer="false"
     inkscape:showpageshadow="false"
     showborder="true">
    <sodipodi:guide
       orientation="0,1"
       position="0,360"
       id="guide2995" />
    <sodipodi:guide
       orientation="0,1"
       position="360,0"
       id="guide2997" />
    <sodipodi:guide
       orientation="1,0"
       position="0,360"
       id="guide2999" />
    <sodipodi:guide
       orientation="1,0"
       position="360,0"
       id="guide3001" />
    <sodipodi:guide
       orientation="0,1"
       position="194.53125,345"
       id="guide4070" />
    <sodipodi:guide
       orientation="0,1"
       position="187.80743,45.073783"
       id="guide4072" />
    <sodipodi:guide
       orientation="1,0"
       position="43.918045,190.1189"
       id="guide4074" />
    <sodipodi:guide
       orientation="1,0"
       position="344.53125,179.99999"
       id="guide4076" />
    <sodipodi:guide
       orientation="0,1"
       position="194.53125,333.70166"
       id="guide3044" />
    <sodipodi:guide
       orientation="0,1"
       position="194.53125,56.298343"
       id="guide3089" />
    <sodipodi:guide
       orientation="1,0"
       position="55.1426,195"
       id="guide3091" />
    <sodipodi:guide
       orientation="0,1"
       position="-39.295092,25.137302"
       id="guide3097" />
    <sodipodi:guide
       orientation="1,0"
       position="23.981564,31.204926"
       id="guide3099" />
    <inkscape:grid
       type="axonomgrid"
       id="grid3128"
       units="mm"
       empspacing="5"
       visible="true"
       enabled="true"
       snapvisiblegridlinesonly="true"
       gridanglex="45" />
    <sodipodi:guide
       orientation="0,1"
       position="243.85455,181.802"
       id="guide3256" />
    <sodipodi:guide
       orientation="0,1"
       position="490.025,127.27922"
       id="guide3128" />
    <sodipodi:guide
       orientation="0,1"
       position="536.69405,288.49957"
       id="guide3130" />
    <sodipodi:guide
       orientation="1,0"
       position="464.2156,181.802"
       id="guide3136" />
    <sodipodi:guide
       orientation="1,0"
       position="518.66282,261.62951"
       id="guide3140" />
    <sodipodi:guide
       orientation="0,1"
       position="527.95713,157.33126"
       id="guide3152" />
    <sodipodi:guide
       orientation="0,1"
       position="490.025,137.17872"
       id="guide3156" />
    <sodipodi:guide
       orientation="1,0"
       position="477.75,283.375"
       id="guide3349" />
    <sodipodi:guide
       orientation="1,0"
       position="487.125,288.49957"
       id="guide3351" />
    <sodipodi:guide
       orientation="1,0"
       position="491.5,288.49957"
       id="guide3353" />
    <sodipodi:guide
       orientation="1,0"
       position="501.25,288.49957"
       id="guide3355" />
    <sodipodi:guide
       orientation="1,0"
       position="504.375,288.49957"
       id="guide3357" />
    <sodipodi:guide
       orientation="1,0"
       position="482.75,190.5"
       id="guide3359" />
    <sodipodi:guide
       orientation="1,0"
       position="508.25,189"
       id="guide3361" />
    <sodipodi:guide
       orientation="1,0"
       position="518.66282,189.75"
       id="guide3363" />
    <sodipodi:guide
       orientation="1,0"
       position="516,191.5"
       id="guide3365" />
    <sodipodi:guide
       orientation="1,0"
       position="474.75,194.25"
       id="guide3367" />
    <sodipodi:guide
       orientation="1,0"
       position="501.25,190.75"
       id="guide3369" />
    <sodipodi:guide
       orientation="1,0"
       position="498.9375,191.1875"
       id="guide3371" />
    <sodipodi:guide
       orientation="0,1"
       position="495.3283,191.27238"
       id="guide3373" />
    <sodipodi:guide
       orientation="0,1"
       position="409.24219,305.41832"
       id="guide3375" />
  </sodipodi:namedview>
  <metadata
     id="metadata7">
    <rdf:RDF>
      <cc:Work
         rdf:about="">
        <dc:format>image/svg+xml</dc:format>
        <dc:type
           rdf:resource="http://purl.org/dc/dcmitype/StillImage" />
        <dc:title></dc:title>
      </cc:Work>
    </rdf:RDF>
  </metadata>
  <g
     inkscape:groupmode="layer"
     id="layer3"
     inkscape:label="bg"
     style="display:inline" />
  <g
     inkscape:label="circles"
     inkscape:groupmode="layer"
     id="layer1"
     transform="translate(0,-692.36218)"
     style="opacity:0.98999999;display:inline">
    <path
       style="fill:#ffffff;fill-opacity:1;stroke:none"
       d="m 187.93223,708.00946 c -83.01204,10e-6 -150.312501,67.14642 -150.312497,149.96876 1e-6,37.87053 14.0725,72.45007 37.281237,98.84376 -1.303198,1.22697 -2.563114,2.38168 -3.749978,3.46873 -14.030385,12.85028 -40.654362,34.39169 -46.875035,39.40629 -0.908696,0.5928 -1.767166,1.2672 -2.531195,2.0312 -2.819518,2.8195 -4.562529,6.6976 -4.562536,11 -2.1e-5,8.6049 6.957592,15.5938 15.562565,15.5937 4.302455,0 8.211772,-1.743 11.03129,-4.5625 0.764029,-0.7641 1.438425,-1.6225 2.0312,-2.5312 5.025506,-6.2317 26.623814,-32.91248 39.500039,-46.96883 1.0666,-1.16432 2.2045,-2.41049 3.40622,-3.68747 26.47485,23.242 61.18249,37.375 99.21877,37.375 83.01203,0 150.31249,-67.14642 150.3125,-149.96875 C 338.2448,775.15581 270.94434,708.0094 187.9323,708.00939 z"
       id="path3050"
       inkscape:connector-curvature="0"
       sodipodi:nodetypes="cscscsssscccsscc" />
    <path
       style="fill:#2c3e50;fill-opacity:1;stroke:none"
       d="m 240.6041,758.82197 c 0,0 -79.60339,60.57216 -114.84375,95.8125 -24.43291,24.43294 -18.36002,69.32877 -28.34375,79.3125 -4.13897,4.13898 -8.648272,8.6079 -13.343744,13.25 4.345476,5.0058 9.051114,9.68917 14.093744,14 4.61765,-4.67722 9.09693,-9.19068 13.21875,-13.3125 9.73268,-9.73267 52.5312,-6.4687 76.84375,-30.78125 35.23054,-35.23054 96.1875,-114.5 96.1875,-114.5 0,0 -0.0917,-0.0604 -0.21875,-0.1875 -0.12707,-0.12705 -0.31615,-0.31615 -0.5625,-0.5625 -0.24633,-0.24631 -0.54842,-0.54844 -0.90625,-0.90625 -0.3578,-0.35782 -0.75725,-0.75726 -1.21875,-1.21875 -0.46149,-0.46148 -92.33002,93.73628 -95.28125,96.6875 -2.55024,2.55026 -10.00546,-4.91971 -7.65625,-7.65625 0,0 93.0535,-98.72543 92.34375,-99.46875 l -2.84375,-2.96875 c -0.78067,-0.81753 -95.43773,90.00025 -98.6875,93.25 -2.44741,2.44741 -9.79115,-4.89635 -7.34375,-7.34375 21.13978,-21.13978 96.56887,-95.43114 95.5625,-96.4375 l -3.46875,-3.4375 c -1.04928,-1.04927 -97.60942,88.10943 -100.71875,91.21875 -2.63251,2.63251 -10.53875,-5.24249 -7.90625,-7.875 2.93948,-2.93949 99.62603,-92.37397 98.5,-93.5 l -3.40625,-3.375 z"
       id="rect3125"
       inkscape:connector-curvature="0" />
  </g>
  <g
     inkscape:groupmode="layer"
     id="layer5"
     inkscape:label="new circles"
     style="display:inline">
    <path
       sodipodi:type="arc"
       style="opacity:0.98999999;fill:none;stroke:#2c3e50;stroke-width:13.52595901;stroke-miterlimit:4;stroke-opacity:1;stroke-dasharray:none;display:inline"
       id="path4080"
       sodipodi:cx="193.88115"
       sodipodi:cy="164.9631"
       sodipodi:rx="149.9631"
       sodipodi:ry="149.9631"
       d="m 343.84425,164.9631 a 149.9631,149.9631 0 1 1 -299.926205,0 149.9631,149.9631 0 1 1 299.926205,0 z"
       transform="matrix(0.88947644,0,0,0.88489537,15.792015,19.672198)" />
  </g>
  <g
     inkscape:groupmode="layer"
     id="layer2"
     inkscape:label="spoon"
     style="display:inline" />
  <g
     inkscape:groupmode="layer"
     id="layer6"
     inkscape:label="spoonglare" />
  <g
     inkscape:groupmode="layer"
     id="layer4"
     inkscape:label="pin"
     style="display:none">
    <path
       sodipodi:type="arc"
       style="fill:#2c3e50;fill-opacity:1;stroke:none"
       id="path3878"
       sodipodi:cx="169.16"
       sodipodi:cy="172.03706"
       sodipodi:rx="72.726845"
       sodipodi:ry="44.947659"
       d="m 241.88685,172.03706 a 72.726845,44.947659 0 1 1 -145.453691,0 72.726845,44.947659 0 1 1 145.453691,0 z"
       transform="matrix(0.51272738,0.51272738,-0.51272738,0.51272738,181.47515,5.0589217)" />
    <path
       style="fill:#f75448;fill-opacity:1;stroke:none;display:inline"
       d="m 315,180 c 19.64617,154.64618 19.64617,154.64618 19.64617,154.64618 0,0 0,0 -154.64617,-19.64618 C 106.03603,305.60365 45,254.55844 45,180 45,105.44156 105.44156,45 180,45 c 74.55844,0 125.60366,61.03602 135,135 z"
       id="path3029"
       inkscape:connector-curvature="0"
       sodipodi:nodetypes="scssss"
       transform="matrix(0.87296054,0,0,0.87296054,22.867103,22.86709)" />
  </g>
</svg>
